<svg xmlns:dc="http://purl.org/dc/elements/1.1/" xmlns:cc="http://creativecommons.org/ns#" xmlns:rdf="http://www.w3.org/1999/02/22-rdf-syntax-ns#" xmlns:svg="http://www.w3.org/2000/svg" xmlns="http://www.w3.org/2000/svg" viewBox="0 0 280 280" fill="none" width="200" height="200"><metadata><rdf:RDF><cc:Work><dc:format>image/svg+xml</dc:format><dc:type rdf:resource="http://purl.org/dc/dcmitype/StillImage"/><dc:title>Avataaars</dc:title><dc:creator><cc:Agent><dc:title>Pablo Stanley</dc:title></cc:Agent></dc:creator><dc:source>https://avataaars.com/</dc:source><cc:license rdf:resource="https://avataaars.com/"/><dc:contributor><cc:Agent><dc:title>Florian Körner</dc:title></cc:Agent></dc:contributor></cc:Work></rdf:RDF></metadata><mask id="avatarsRadiusMask"><rect width="280" height="280" rx="140" ry="140" x="0" y="0" fill="#fff"/></mask><g mask="url(#avatarsRadiusMask)"><rect fill="ffe066" width="280" height="280" x="0" y="0"/><g transform="translate(28 28) scale(0.8)"><g transform="translate(40, 36)"><path d="M100 0C69.072 0 44 25.072 44 56v6.166c-5.675.952-10 5.888-10 11.834v14c0 6.052 4.48 11.058 10.305 11.881 2.067 19.806 14.458 36.541 31.695 44.73V163h-4c-39.764 0-72 32.236-72 72v9h200v-9c0-39.764-32.236-72-72-72h-4v-18.389c17.237-8.189 29.628-24.924 31.695-44.73C161.52 99.058 166 94.052 166 88V74c0-5.946-4.325-10.882-10-11.834V56c0-30.928-25.072-56-56-56z" fill="#D08B5B"/><path d="M76 144.611v8A55.79 55.79 0 00100 158a55.789 55.789 0 0024-5.389v-8A55.789 55.789 0 01100 150a55.79 55.79 0 01-24-5.389z" fill="#000" fill-opacity=".1"/></g><g transform="translate(8, 170)"><path d="M132 57.052c14.912 0 27-11.193 27-25 0-1.015-.065-2.017-.192-3H160c39.764 0 72 32.235 72 72V110H32v-8.948c0-39.765 32.236-72 72-72h1.192a23.418 23.418 0 00-.192 3c0 13.807 12.088 25 27 25z" fill="#E6E6E6"/><path d="M100.778 29.122c.072-.378.145-.752.222-1.122-2.959.054-6 1-6 1l-.42.662C59.267 34.276 32 64.48 32 101.052V110h74s-10.7-51.555-5.238-80.793l.023-.085h-.007zM158 110s11-53 5-82c2.959.054 6 1 6 1l.419.662C204.733 34.276 232 64.48 232 101.052V110h-74z" fill="#262E33"/><path d="M183.423 85.77l.871-2.24 6.262-4.697a4 4 0 014.856.043L202 84l-18.577 1.77z" fill="#E6E6E6"/><path fill-rule="evenodd" clip-rule="evenodd" d="M101 28c-6 29 5 82 5 82H90L76 74l6-9-6-6 19-30s3.041-.946 6-1zm62 0c6 29-5 82-5 82h16l14-36-6-9 6-6-19-30s-3.041-.946-6-1z" fill="#000" fill-opacity=".15"/><path d="M108 21.539c-6.772 4.597-11 11.117-11 18.349 0 7.4 4.428 14.057 11.48 18.669l5.941-4.68 4.579.33-1-3.15.078-.062C111.978 47.853 108 42.7 108 36.877V21.539zm48 15.338c0 5.823-3.978 10.976-10.078 14.118l.078.062-1 3.15 4.579-.33 5.941 4.68c7.052-4.612 11.48-11.268 11.48-18.67 0-7.23-4.228-13.751-11-18.348v15.338z" fill="#F2F2F2"/></g><g transform="translate(86, 134)"><path fill-rule="evenodd" clip-rule="evenodd" d="M35.118 29.872C36.176 20.38 44.226 13 54 13c9.804 0 17.874 7.426 18.892 16.96.082.767-.775 2.04-1.85 2.04H37.088c-1.08 0-2.075-1.178-1.97-2.128z" fill="#000" fill-opacity=".7"/><path d="M69.586 32H38.414c1.306-4.617 5.55-8 10.586-8 1.8 0 3.5.433 5 1.2 1.5-.767 3.2-1.2 5-1.2 5.035 0 9.28 3.383 10.586 8z" fill="#FF4F6D"/><path d="M66.567 17.75c-.493.162-1.02.25-1.567.25H44a4.98 4.98 0 01-2.243-.53A18.923 18.923 0 0154 13c4.818 0 9.218 1.794 12.567 4.75z" fill="#fff"/></g><g transform="translate(112, 122)"><path fill-rule="evenodd" clip-rule="evenodd" d="M16 8c0 4.418 5.373 8 12 8s12-3.582 12-8" fill="#000" fill-opacity=".16"/></g><g transform="translate(84, 90)"><path d="M44 20.727c0 4.268-6.268 7.727-14 7.727s-14-3.46-14-7.727S22.268 13 30 13s14 3.46 14 7.727zm52 0c0 4.268-6.268 7.727-14 7.727s-14-3.46-14-7.727S74.268 13 82 13s14 3.46 14 7.727z" fill="#fff"/><path d="M32.82 28.297c-.91.103-1.854.157-2.82.157-.966 0-1.91-.054-2.82-.157a6 6 0 115.64 0zm52 0c-.91.103-1.854.157-2.82.157-.966 0-1.91-.054-2.82-.157a6 6 0 115.64 0z" fill="#000" fill-opacity=".7"/></g><g transform="translate(84, 82)"><path fill-rule="evenodd" clip-rule="evenodd" d="M22.766 1.578l.911-.402C28.92-.905 36.865-.033 41.723 2.299c.567.272.18 1.153-.402 1.108-14.919-1.151-24.963 8.146-28.375 14.44-.101.187-.407.208-.482.034-2.308-5.319 4.45-13.985 10.302-16.303zm66.468 0l-.911-.402C83.08-.905 75.135-.033 70.277 2.299c-.567.272-.18 1.153.402 1.108 14.919-1.151 24.963 8.146 28.375 14.44.101.187.407.208.483.034 2.307-5.319-4.45-13.985-10.303-16.303z" fill="#000" fill-opacity=".6"/></g><g transform="translate(7, 0)"><path d="M40 145c-.617-30.836 28.319-95.205 39-108 7.923-9.491 29.695-17.45 54-17 24.305.45 46.862 5.812 55 16 12.324 15.428 37.869 74.079 38 109 .093 24.8-9.537 49.66-23 51-7.601.757-17.257-.226-28.859-1.406-5.309-.54-11.026-1.121-17.141-1.597v-12.386c18.92-8.988 32-28.272 32-50.611v-28.436c-10.509-5.79-19.455-12.78-26.909-19.882 3.356 6.24 7.194 11.908 11.522 16.191-30.582-8.58-51.724-26.152-64.393-39.93-5.825 11.08-16.257 27.282-32.22 39.625V130c0 22.339 13.08 41.623 32 50.611v13.135c-6.952.951-13.414 2.159-19.36 3.271h-.002c-10.849 2.028-19.983 3.735-27.254 2.983-14.222-1.469-21.888-30.204-22.384-55z" fill="#724133"/></g><g transform="translate(56, 72)"><path fill-rule="evenodd" clip-rule="evenodd" d="M101.428 98.169c-2.513 2.294-5.19 3.325-8.575 2.604-.582-.124-2.957-4.538-8.853-4.538-5.897 0-8.27 4.414-8.853 4.538-3.385.721-6.062-.31-8.576-2.604-4.725-4.313-8.654-10.26-6.293-16.75 1.23-3.382 3.232-7.095 6.873-8.173 3.887-1.15 9.346-.002 13.264-.788 1.27-.254 2.656-.707 3.585-1.458.929.75 2.316 1.204 3.585 1.458 3.918.786 9.376-.362 13.264.788 3.641 1.078 5.642 4.79 6.873 8.173 2.361 6.49-1.568 12.437-6.294 16.75zM140.081 26c-3.41 8.4-2.093 18.858-2.724 27.676-.513 7.167-2.02 17.91-8.384 22.538-3.255 2.368-9.179 6.346-13.431 5.236-2.927-.764-3.24-9.16-7.087-12.303-4.363-3.565-9.812-5.131-15.306-4.89-2.37.105-7.165.08-9.15 1.903-1.983-1.822-6.777-1.798-9.148-1.902-5.494-.242-10.943 1.324-15.306 4.889-3.847 3.143-4.16 11.54-7.087 12.303-4.252 1.11-10.176-2.868-13.431-5.236-6.365-4.628-7.87-15.37-8.384-22.538-.63-8.818.686-19.276-2.724-27.676-1.66 0-.565 16.129-.565 16.129v20.356c.032 15.288 9.581 38.17 30.754 46.908C63.286 111.53 75.015 115 84 115s20.714-3.14 25.892-5.277c21.173-8.737 30.722-31.95 30.754-47.238V42.13S141.74 26 140.081 26z" fill="#F59797"/></g></g></g></svg>